<svg xmlns="http://www.w3.org/2000/svg" width="47" height="50.599" viewBox="0 0 47 50.599">
  <g id="그룹_13695" data-name="그룹 13695" transform="translate(-1401.036 -366.858)">
    <path id="패스_28595" data-name="패스 28595" d="M1425.44,516.846a24.01,24.01,0,0,1-7.586-1.161,46.736,46.736,0,0,1-14.572-7.509,17.146,17.146,0,0,1-1.724-1.6,1.317,1.317,0,0,1,.014-2.112,21.17,21.17,0,0,1,2.4-2.119,46.4,46.4,0,0,1,16.371-7.62,19.562,19.562,0,0,1,10.572.578,45.624,45.624,0,0,1,15.032,7.725,15.876,15.876,0,0,1,1.605,1.534,1.2,1.2,0,0,1-.025,1.942,46.514,46.514,0,0,1-4.585,3.659,43.253,43.253,0,0,1-13,5.848C1428.179,516.467,1426.355,516.681,1425.44,516.846Zm-9.9-11.3a9,9,0,1,0,9-8.783A8.862,8.862,0,0,0,1415.536,505.551Zm-.607,6.254a10.842,10.842,0,0,1-1.956-6.25,11.493,11.493,0,0,1,1.861-6.3,39.306,39.306,0,0,0-10.721,6.255C1406.264,507.557,1412.711,511.316,1414.929,511.8Zm29.964-6.215c-1.619-1.809-8.888-6.07-10.7-6.3,2.545,4.159,2.538,8.328-.087,12.623A41.99,41.99,0,0,0,1444.894,505.589Z" transform="translate(0 -113.413)" fill="#6a6a6a"/>
    <path id="패스_28596" data-name="패스 28596" d="M1607.685,753.278c0,.959.008,1.918,0,2.877-.01.916-.518,1.472-1.309,1.46a1.279,1.279,0,0,1-1.26-1.443q-.015-2.909,0-5.818a1.29,1.29,0,1,1,2.566-.017C1607.7,751.317,1607.684,752.3,1607.685,753.278Z" transform="translate(-181.686 -340.159)" fill="#6a6a6a"/>
    <path id="패스_28597" data-name="패스 28597" d="M1604.291,371.186c0,.981.007,1.962,0,2.942a1.288,1.288,0,1,1-2.562.009q-.02-2.91,0-5.819c.006-.922.523-1.476,1.311-1.459s1.248.584,1.253,1.516S1604.291,370.248,1604.291,371.186Z" transform="translate(-178.668)" fill="#6a6a6a"/>
    <path id="패스_28598" data-name="패스 28598" d="M1736.246,724.913a4.629,4.629,0,0,1-.925,1.03,1.152,1.152,0,0,1-1.433-.262q-1.684-1.637-3.372-3.27c-.343-.333-.7-.656-1.026-1a1.261,1.261,0,0,1-.055-1.86,1.234,1.234,0,0,1,1.807.031q2.222,2.113,4.4,4.275A5.125,5.125,0,0,1,1736.246,724.913Z" transform="translate(-292.035 -313.665)" fill="#6a6a6a"/>
    <path id="패스_28599" data-name="패스 28599" d="M1435.765,724.917a5.127,5.127,0,0,1,.607-1.058c1.447-1.443,2.916-2.863,4.394-4.275a1.252,1.252,0,0,1,1.811-.008,1.232,1.232,0,0,1-.035,1.807c-1.465,1.456-2.951,2.89-4.435,4.327a1.132,1.132,0,0,1-1.434.246A4.825,4.825,0,0,1,1435.765,724.917Z" transform="translate(-30.92 -313.687)" fill="#6a6a6a"/>
    <path id="패스_28600" data-name="패스 28600" d="M1438.232,411.421a5.923,5.923,0,0,1,1.053.616c1.423,1.343,2.823,2.71,4.223,4.077a1.327,1.327,0,0,1,.233,1.955,1.281,1.281,0,0,1-1.95-.083c-1.45-1.378-2.874-2.782-4.309-4.175a1.153,1.153,0,0,1-.292-1.48A4.631,4.631,0,0,1,1438.232,411.421Z" transform="translate(-32.048 -39.675)" fill="#6a6a6a"/>
    <path id="패스_28601" data-name="패스 28601" d="M1736.242,413.943a5.622,5.622,0,0,1-.616,1.016q-2.144,2.147-4.333,4.248a1.289,1.289,0,0,1-1.914.031,1.256,1.256,0,0,1,.142-1.855c1.425-1.4,2.865-2.794,4.294-4.195a1.186,1.186,0,0,1,1.48-.312A4.708,4.708,0,0,1,1736.242,413.943Z" transform="translate(-292.02 -40.84)" fill="#6a6a6a"/>
    <path id="패스_28602" data-name="패스 28602" d="M1582.978,561.05a4.518,4.518,0,0,1-9.034-.012,4.517,4.517,0,0,1,9.034.012Zm-4.513-1.891a1.873,1.873,0,1,0,1.955,1.85A1.9,1.9,0,0,0,1578.464,559.159Z" transform="translate(-153.942 -168.912)" fill="#ef8009"/>
  </g>
</svg>
