<svg xmlns="http://www.w3.org/2000/svg" width="49.673" height="49.819" viewBox="0 0 49.673 49.819">
  <g id="그룹_13697" data-name="그룹 13697" transform="translate(-2479.952 -387.51)">
    <path id="패스_28603" data-name="패스 28603" d="M2486.574,427.7c.071-.718.16-1.436.209-2.156.062-.9-.073-1.1-.919-1.38-.666-.223-1.35-.391-2.012-.625a5.529,5.529,0,0,1-1.178-.56,1.967,1.967,0,0,1-.882-2.327,13.416,13.416,0,0,1,.992-2.228c.908-1.685.879-1.814-.613-2.99a10.805,10.805,0,0,1-1.686-1.6,1.99,1.99,0,0,1,.007-2.719,16.969,16.969,0,0,1,1.986-1.871c1.136-.97,1.164-1.038.474-2.376-.339-.658-.71-1.3-.99-1.987a2.248,2.248,0,0,1,1.374-3.271c.806-.328,1.658-.543,2.484-.825.913-.311,1.037-.5.962-1.463-.06-.777-.162-1.55-.212-2.328a2.394,2.394,0,0,1,2.672-2.782,19.357,19.357,0,0,1,1.928.183c1.493.193,1.638.107,2.092-1.311.231-.723.418-1.466.714-2.162a2.231,2.231,0,0,1,3.2-1.327c.792.315,1.543.732,2.317,1.093.955.444,1.149.394,1.851-.413.585-.674,1.128-1.393,1.774-2a2.186,2.186,0,0,1,3.338.029,21.667,21.667,0,0,1,1.592,1.785c.895,1.068,1.076,1.11,2.292.454.618-.333,1.226-.694,1.869-.973a2.323,2.323,0,0,1,3.479,1.428c.32.811.533,1.664.819,2.489.274.789.417.888,1.253.845.607-.031,1.21-.121,1.816-.172a8.267,8.267,0,0,1,1.082-.043,2.248,2.248,0,0,1,2.35,2.34,13.813,13.813,0,0,1-.164,2.212c-.2,1.538-.1,1.714,1.37,2.165a20.884,20.884,0,0,1,2.108.693,2.227,2.227,0,0,1,1.317,3.206c-.312.771-.75,1.491-1.122,2.239-.533,1.073-.491,1.261.417,2.035.621.53,1.282,1.021,1.854,1.6a2.262,2.262,0,0,1-.012,3.517c-.67.671-1.409,1.275-2.139,1.883a.977.977,0,0,0-.288,1.352c.326.623.645,1.249.952,1.881a7.771,7.771,0,0,1,.439,1.048,2.109,2.109,0,0,1-1.185,2.794,26.748,26.748,0,0,1-2.627.925c-1.107.373-1.182.457-1.111,1.631.046.758.179,1.512.208,2.27a2.356,2.356,0,0,1-2.675,2.71c-.8-.017-1.588-.155-2.384-.21-1.045-.072-1.211.043-1.535,1.024-.208.631-.378,1.274-.585,1.906a5.234,5.234,0,0,1-.376.891,2.124,2.124,0,0,1-2.789,1.1c-.853-.306-1.655-.754-2.483-1.132-1.128-.516-1.314-.461-2.123.5a19.718,19.718,0,0,1-1.693,1.919,2.163,2.163,0,0,1-3.217-.009,22.007,22.007,0,0,1-1.753-1.947c-.816-.96-.987-1-2.112-.393-.686.367-1.364.762-2.081,1.057a2.228,2.228,0,0,1-3.241-1.327c-.343-.821-.563-1.692-.852-2.536-.309-.9-.418-.991-1.351-.946-.758.037-1.512.165-2.27.2C2487.4,430.806,2486.431,429.788,2486.574,427.7Zm1.742-.173h-.038c0,.152,0,.3,0,.455,0,.835.084.949.9.919.8-.029,1.592-.112,2.388-.175a2.708,2.708,0,0,1,3.167,1.986c.139.373.233.763.361,1.14.183.539.369,1.077.572,1.608a.484.484,0,0,0,.733.3c.5-.236.985-.488,1.478-.732s.974-.517,1.481-.725a2.391,2.391,0,0,1,2.818.6c.657.684,1.242,1.437,1.873,2.148.6.68.849.688,1.462.008.407-.451.77-.942,1.151-1.415,1.408-1.748,2.556-1.973,4.512-.893.565.312,1.125.636,1.709.909.669.313.858.24,1.116-.457.3-.8.509-1.632.8-2.434a2.713,2.713,0,0,1,3.191-2.039c.814.065,1.629.144,2.445.175.717.027.85-.1.825-.816-.03-.873-.145-1.743-.174-2.616a2.663,2.663,0,0,1,2.127-3.07c.736-.251,1.493-.443,2.224-.707.816-.295.884-.472.51-1.266-.387-.824-.832-1.621-1.213-2.448a2.447,2.447,0,0,1,.61-3.056c.628-.579,1.3-1.106,1.945-1.673.844-.746.842-.954-.006-1.688-.66-.572-1.359-1.1-2-1.7a2.431,2.431,0,0,1-.629-2.865c.193-.493.459-.958.7-1.432.231-.458.475-.909.7-1.368a.612.612,0,0,0-.4-.973c-.793-.26-1.594-.5-2.38-.78-1.757-.625-2.271-1.392-2.184-3.256.04-.854.123-1.705.176-2.558.031-.5-.212-.75-.719-.714-.739.052-1.479.1-2.216.172-2.1.213-3.059-.415-3.688-2.443-.2-.634-.374-1.276-.6-1.9-.3-.83-.44-.887-1.254-.506-.722.338-1.412.744-2.134,1.081a2.652,2.652,0,0,1-3.656-.754c-.558-.622-1.063-1.293-1.626-1.91-.484-.531-.733-.533-1.221,0-.512.56-.957,1.181-1.456,1.755-1.3,1.493-2.326,1.691-4.075.8-.676-.346-1.331-.734-2.018-1.057-.609-.286-.8-.208-1.038.431-.248.656-.429,1.337-.644,2.006-.688,2.14-1.592,2.721-3.824,2.486-.7-.074-1.4-.113-2.1-.159-.506-.033-.744.219-.712.719.041.625.067,1.253.141,1.874.293,2.468-.318,3.412-2.687,4.122-.582.174-1.168.34-1.735.555-.7.265-.766.423-.448,1.114.35.758.77,1.483,1.126,2.239a2.649,2.649,0,0,1-.72,3.618c-.535.485-1.112.922-1.661,1.391-.881.752-.884,1,.006,1.764.549.469,1.142.888,1.679,1.37a2.657,2.657,0,0,1,.728,3.574c-.321.687-.716,1.339-1.058,2.017-.471.935-.41,1.105.564,1.457.856.309,1.738.547,2.587.874a2.438,2.438,0,0,1,1.658,2.533C2488.442,425.937,2488.367,426.733,2488.317,427.529Z" transform="translate(0)" fill="#6a6a6a"/>
    <path id="패스_28604" data-name="패스 28604" d="M2616.134,561.53a4,4,0,0,1-.459.733q-5.406,5.449-10.833,10.877a.838.838,0,0,1-1.34.008q-5.494-5.482-10.976-10.976a.776.776,0,0,1-.05-1.247q2.607-2.873,5.245-5.719a1.059,1.059,0,0,1,.7-.287c3.8-.018,7.61-.023,11.414.007a1.445,1.445,0,0,1,.925.45c1.669,1.8,3.308,3.625,4.946,5.451A4.654,4.654,0,0,1,2616.134,561.53Zm-11.991,9.031,3.478-8.134h-6.957Zm3.426-9.911c-.641-1.342-1.243-2.625-1.876-3.893a.617.617,0,0,0-.467-.212q-1.083-.034-2.167,0a.62.62,0,0,0-.468.214c-.632,1.268-1.235,2.55-1.875,3.891Zm-.764,7.889,6.2-6.157c-1.114,0-2.248-.009-3.38.015-.114,0-.264.188-.327.322-.25.532-.476,1.076-.706,1.617C2607.982,565.762,2607.376,567.189,2606.8,568.539Zm-11.672-6.158,6.3,6.225c0,.037.021-.025,0-.07-.829-1.954-1.657-3.908-2.5-5.854a.528.528,0,0,0-.361-.288C2597.456,562.371,2596.342,562.38,2595.132,562.38Zm-.088-1.84.057.14c1.173,0,2.347.013,3.519-.017.146,0,.339-.21.419-.368.452-.9.879-1.811,1.309-2.721.15-.318.282-.644.452-1.036-.687,0-1.275-.008-1.861.007a.544.544,0,0,0-.351.149Q2596.807,558.609,2595.044,560.54Zm12.529-4c-.017.107-.039.151-.026.178.582,1.235,1.157,2.474,1.764,3.7a.653.653,0,0,0,.49.258c.8.027,1.595.012,2.393.012h1.178c-1.289-1.4-2.453-2.676-3.625-3.942a.558.558,0,0,0-.33-.193C2608.8,556.529,2608.181,556.539,2607.573,556.539Z" transform="translate(-99.42 -148.283)" fill="#6a6a6a"/>
    <path id="패스_28605" data-name="패스 28605" d="M2620.78,505.751a4.107,4.107,0,0,1,.77.562c.58.7,1.128,1.433,1.674,2.163.387.517.359,1.01-.048,1.308a.906.906,0,0,1-1.25-.266c-.585-.724-1.184-1.439-1.71-2.205a1.237,1.237,0,0,1-.121-.938C2620.163,506.144,2620.5,505.992,2620.78,505.751Z" transform="translate(-124.105 -104.741)" fill="#ef8009"/>
    <path id="패스_28606" data-name="패스 28606" d="M2743.313,509.81a6.318,6.318,0,0,1,.383-.829c.5-.74,1.015-1.467,1.533-2.193a.811.811,0,0,1,1.213-.3.779.779,0,0,1,.149,1.2c-.557.837-1.117,1.676-1.745,2.459a1.061,1.061,0,0,1-.88.259C2743.722,510.354,2743.532,510.022,2743.313,509.81Z" transform="translate(-233.293 -105.248)" fill="#ef8009"/>
    <path id="패스_28607" data-name="패스 28607" d="M2691.923,495.958c0,.494.016.989,0,1.483a.855.855,0,0,1-.813.925c-.452.006-.765-.37-.765-.944,0-.932,0-1.864.023-2.8.013-.652.3-.987.792-.972.477.014.781.395.786.991,0,.361,0,.723,0,1.084v.228Z" transform="translate(-186.369 -94.025)" fill="#ef8009"/>
  </g>
</svg>
