<svg xmlns="http://www.w3.org/2000/svg" width="48.018" height="48.01" viewBox="0 0 48.018 48.01">
  <g id="그룹_13694" data-name="그룹 13694" transform="translate(-347.729 -391.641)">
    <path id="패스_28591" data-name="패스 28591" d="M371.314,392.141a23.1,23.1,0,0,1,7.392,1.077,1.133,1.133,0,0,1,.9,1.267,1.075,1.075,0,0,1-.987.99,3.324,3.324,0,0,1-.923-.142,38.445,38.445,0,0,0-5.031-.776c-8.179-.213-14.605,3.148-18.933,10.065a20.92,20.92,0,0,0,1.715,24.461,20.251,20.251,0,0,0,12.766,7.388,21.176,21.176,0,0,0,24.617-22.587,34.919,34.919,0,0,0-.735-4.025c-.035-.185-.1-.364-.134-.55a1.181,1.181,0,0,1,.914-1.483,1.129,1.129,0,0,1,1.347.945,36.006,36.006,0,0,1,.861,4.193,23.467,23.467,0,0,1-18.968,25.74,23.289,23.289,0,0,1-27.177-17.681c-2.042-8.91.471-16.63,7.168-22.853A22.407,22.407,0,0,1,371.314,392.141Z" fill="#6a6a6a" stroke="rgba(0,0,0,0)" stroke-width="1"/>
    <path id="패스_28592" data-name="패스 28592" d="M430.3,486.695a14.027,14.027,0,0,0,13.4-9.909,13.154,13.154,0,0,0,.559-4.919,1.273,1.273,0,0,1,1.137-1.531c.6-.058,1.139.458,1.211,1.275a14.553,14.553,0,0,1-.74,6.03,16.151,16.151,0,0,1-10.277,10.524,16.391,16.391,0,0,1-19.239-6.878,16.338,16.338,0,0,1,3.894-21.562,16.4,16.4,0,0,1,10.14-3.44,4.6,4.6,0,0,1,1.063.1,1.261,1.261,0,0,1,1.03,1.376,1.22,1.22,0,0,1-1.378.934,13.8,13.8,0,0,0-5.638.8,14.07,14.07,0,0,0-9.173,12.065,13.7,13.7,0,0,0,4.773,11.7A13.556,13.556,0,0,0,430.3,486.695Z" transform="translate(-58.429 -57.109)" fill="#6a6a6a" stroke="rgba(0,0,0,0)" stroke-width="1"/>
    <path id="패스_28593" data-name="패스 28593" d="M570.3,418.329c1.176,0,2.265,0,3.355,0a1.187,1.187,0,0,1,1,1.985c-2.334,2.336-4.657,4.683-7.023,6.985a1.987,1.987,0,0,1-1.206.411c-1.091.056-2.188-.012-3.28.038a1.607,1.607,0,0,0-.972.407c-2.389,2.341-4.749,4.71-7.12,7.069a3.228,3.228,0,0,1-.524.449,1.14,1.14,0,0,1-1.493-.157,1.114,1.114,0,0,1-.022-1.5,8.774,8.774,0,0,1,.693-.733c2.259-2.263,4.512-4.531,6.785-6.78a1.379,1.379,0,0,0,.448-1.11c-.027-1.072-.062-2.149.016-3.216a2.277,2.277,0,0,1,.536-1.335c2.183-2.248,4.42-4.444,6.632-6.664a1.259,1.259,0,0,1,1.472-.4,1.221,1.221,0,0,1,.7,1.293C570.29,416.12,570.3,417.17,570.3,418.329Zm.625,2.356c-.625,0-1.064.005-1.5,0-1.032-.016-1.444-.421-1.472-1.457-.012-.449,0-.9,0-1.436a2.436,2.436,0,0,0-.319.2q-2.058,2.046-4.109,4.1c-.087.087-.206.2-.208.3-.016.976-.009,1.952-.009,2.965.9,0,1.724.029,2.54-.016a1.368,1.368,0,0,0,.815-.34c1.285-1.242,2.54-2.515,3.8-3.78C570.581,421.095,570.691,420.95,570.92,420.684Z" transform="translate(-182.064 -19.174)" fill="#ef8009" stroke="rgba(0,0,0,0)" stroke-width="1"/>
    <path id="패스_28594" data-name="패스 28594" d="M487.422,536.6a7,7,0,0,0,7.013-6.7c.021-.525.079-1.069.611-1.284a1.713,1.713,0,0,1,1.12-.029,1.093,1.093,0,0,1,.633,1.2,9.356,9.356,0,0,1-13.045,8.378,9.022,9.022,0,0,1-5.676-8.576,9.355,9.355,0,0,1,8.877-9.378,1.554,1.554,0,0,1,.967.153,1.873,1.873,0,0,1,.644,1.054.955.955,0,0,1-.746,1.037,3.148,3.148,0,0,1-.741.119,7.017,7.017,0,0,0,.344,14.025Z" transform="translate(-115.594 -114.02)" fill="#6a6a6a" stroke="rgba(0,0,0,0)" stroke-width="1"/>
  </g>
</svg>
