<svg xmlns="http://www.w3.org/2000/svg" width="57.128" height="39.073" viewBox="0 0 57.128 39.073">
  <g id="그룹_15134" data-name="그룹 15134" transform="translate(-1670.936 -2601.427)">
    <path id="패스_28766" data-name="패스 28766" d="M1962.95,2756.06c1.767-.727,3.1-2.408,4.7-5.3-4.295-2.517-9-1.02-12.053,4.353" transform="translate(-241.21 -124.93)" fill="none" stroke="#a5a5a5" stroke-miterlimit="10" stroke-width="2"/>
    <path id="패스_28767" data-name="패스 28767" d="M1914.614,2810.048c3.028,2.894,7.525,4.857,13.193-1.076C1924.059,2805.391,1918.885,2805.578,1914.614,2810.048Z" transform="translate(-206.354 -173.329)" fill="none" stroke="#a5a5a5" stroke-miterlimit="10" stroke-width="2"/>
    <path id="패스_28768" data-name="패스 28768" d="M1982.758,2683.761c1.873-1.3,3.28-3.717,3.563-7.971-5.172-.344-9.022,3.119-9.432,9.29" transform="translate(-259.321 -62.158)" fill="none" stroke="#a5a5a5" stroke-miterlimit="10" stroke-width="2"/>
    <path id="패스_28769" data-name="패스 28769" d="M1976.136,2611.421c1.265-1.9,1.684-4.669.373-8.735-4.932,1.592-7.231,6.232-5.333,12.118" transform="translate(-253.898 0)" fill="none" stroke="#a5a5a5" stroke-miterlimit="10" stroke-width="2"/>
    <path id="패스_28770" data-name="패스 28770" d="M1680.458,2756.06c-1.767-.727-3.1-2.408-4.7-5.3,4.295-2.517,9-1.02,12.053,4.353" transform="translate(-3.199 -124.93)" fill="none" stroke="#a5a5a5" stroke-miterlimit="10" stroke-width="2"/>
    <path id="패스_28771" data-name="패스 28771" d="M1722.308,2810.048c-3.028,2.894-7.525,4.857-13.193-1.076C1712.862,2805.391,1718.037,2805.578,1722.308,2810.048Z" transform="translate(-31.568 -173.329)" fill="none" stroke="#a5a5a5" stroke-miterlimit="10" stroke-width="2"/>
    <path id="패스_28772" data-name="패스 28772" d="M1675.563,2683.761c-1.873-1.3-3.28-3.717-3.562-7.971,5.172-.344,9.022,3.119,9.433,9.29" transform="translate(0 -62.158)" fill="none" stroke="#a5a5a5" stroke-miterlimit="10" stroke-width="2"/>
    <path id="패스_28773" data-name="패스 28773" d="M1697.175,2611.421c-1.265-1.9-1.684-4.669-.373-8.735,4.932,1.592,7.231,6.232,5.333,12.118" transform="translate(-20.413 0)" fill="none" stroke="#a5a5a5" stroke-miterlimit="10" stroke-width="2"/>
    <path id="패스_28774" data-name="패스 28774" d="M1828.782,2636.956a4.9,4.9,0,0,0,4.783-5.124v-1.709a4.794,4.794,0,1,0-9.565,0v1.709A4.9,4.9,0,0,0,1828.782,2636.956Z" transform="translate(-129.283 -18.979)" fill="none" stroke="#a5a5a5" stroke-miterlimit="10" stroke-width="2"/>
    <path id="패스_28775" data-name="패스 28775" d="M1811.13,2714.565v-3.587c0-3.3-4.09-5.978-9.565-5.978s-9.565,2.677-9.565,5.978v3.587" transform="translate(-102.065 -87.022)" fill="none" stroke="#a5a5a5" stroke-linecap="round" stroke-miterlimit="10" stroke-width="2"/>
  </g>
</svg>
