<svg xmlns="http://www.w3.org/2000/svg" width="48.02" height="40.031" viewBox="0 0 48.02 40.031">
  <g id="그룹_15159" data-name="그룹 15159" transform="translate(-1130.761 -2989.76)">
    <g id="그룹_15138" data-name="그룹 15138" transform="translate(922.761 2938.375)">
      <path id="패스_28789" data-name="패스 28789" d="M238.771,60.575s1.65-3.916,4.2-5.006a2.6,2.6,0,0,1,3.7,1.532,2.921,2.921,0,0,1-1.713,3.853C242.411,62.045,238.771,60.575,238.771,60.575Z" fill="none" stroke="#a5a5a5" stroke-miterlimit="10" stroke-width="2"/>
      <path id="패스_28790" data-name="패스 28790" d="M238.771,60.575s.992-4.155-.183-6.6a2.434,2.434,0,0,0-3.676-1.153,3,3,0,0,0-1.175,4.048C234.912,59.316,238.771,60.575,238.771,60.575Z" fill="none" stroke="#a5a5a5" stroke-miterlimit="10" stroke-width="2"/>
      <line id="선_306" data-name="선 306" y1="3.979" x2="1.448" transform="translate(220.826 62.021)" fill="none" stroke="#a5a5a5" stroke-miterlimit="10" stroke-width="2"/>
      <line id="선_307" data-name="선 307" y1="4.001" x2="1.456" transform="translate(218.642 68)" fill="none" stroke="#a5a5a5" stroke-miterlimit="10" stroke-width="2"/>
      <line id="선_308" data-name="선 308" y1="4.001" x2="1.456" transform="translate(216.458 74)" fill="none" stroke="#a5a5a5" stroke-miterlimit="10" stroke-width="2"/>
      <path id="패스_28791" data-name="패스 28791" d="M250.465,72.281l-6.5,17.854L218,80.683" fill="none" stroke="#a5a5a5" stroke-miterlimit="10" stroke-width="2"/>
      <path id="패스_28792" data-name="패스 28792" d="M233.551,66.125,220.4,61.336l2.394-6.578,31.949,11.629-2.394,6.578-13.156-4.788" fill="none" stroke="#a5a5a5" stroke-miterlimit="10" stroke-width="2"/>
      <line id="선_309" data-name="선 309" x1="8.893" y2="24.432" transform="translate(227.052 59.547)" fill="none" stroke="#a5a5a5" stroke-miterlimit="10" stroke-width="2"/>
      <line id="선_310" data-name="선 310" y1="24.432" x2="8.893" transform="translate(232.69 61.599)" fill="none" stroke="#a5a5a5" stroke-miterlimit="10" stroke-width="2"/>
      <line id="선_311" data-name="선 311" x2="13" transform="translate(211 66)" fill="none" stroke="#a5a5a5" stroke-miterlimit="10" stroke-width="2"/>
      <line id="선_312" data-name="선 312" x2="15" transform="translate(212 72)" fill="none" stroke="#a5a5a5" stroke-miterlimit="10" stroke-width="2"/>
      <line id="선_313" data-name="선 313" x2="16" transform="translate(208 78)" fill="none" stroke="#a5a5a5" stroke-miterlimit="10" stroke-width="2"/>
    </g>
  </g>
</svg>
