<svg xmlns="http://www.w3.org/2000/svg" width="61.446" height="58.761" viewBox="0 0 61.446 58.761">
  <g id="그룹_15153" data-name="그룹 15153" transform="translate(-1502.449 -1985.588)">
    <g id="그룹_15121" data-name="그룹 15121" transform="translate(1453.143 1855.628)">
      <path id="패스_28741" data-name="패스 28741" d="M64.026,141.718c2.382,0,4.026-2.014,4.026-4.5V135.46c0-2.484-1.644-4.5-4.026-4.5S60,132.976,60,135.46v1.758C60,139.7,61.644,141.718,64.026,141.718Z" transform="translate(3.412 0)" fill="none" stroke="#ef8009" stroke-miterlimit="10" stroke-width="2"/>
      <path id="패스_28742" data-name="패스 28742" d="M50.168,138.29l10.511,11.689v32.209" transform="translate(0.049 2.507)" fill="none" stroke="#ef8009" stroke-miterlimit="10" stroke-width="2"/>
      <path id="패스_28743" data-name="패스 28743" d="M84.184,132.433,71.729,145.42a4.2,4.2,0,0,1-3.123,1.216H65.821a4.2,4.2,0,0,1-3.1-1.189l-12.7-13.075" transform="translate(0 0.483)" fill="none" stroke="#ef8009" stroke-miterlimit="10" stroke-width="2"/>
      <path id="패스_28744" data-name="패스 28744" d="M68,182.19V149.981l10.268-11.7" transform="translate(6.149 2.505)" fill="none" stroke="#ef8009" stroke-miterlimit="10" stroke-width="2"/>
      <line id="선_295" data-name="선 295" y2="20.131" transform="translate(67.438 164.565)" fill="none" stroke="#ef8009" stroke-miterlimit="10" stroke-width="2"/>
      <path id="패스_28745" data-name="패스 28745" d="M71.384,146.386l7.537,8.876v28.183" transform="translate(7.306 5.276)" fill="none" stroke="#686868" stroke-miterlimit="10" stroke-width="2"/>
      <path id="패스_28746" data-name="패스 28746" d="M101.524,138.033,89.068,151.278a4.448,4.448,0,0,1-3.123,1.474H83.162a4.444,4.444,0,0,1-3.1-1.447l-5.191-6.251" transform="translate(8.5 2.419)" fill="none" stroke="#686868" stroke-miterlimit="10" stroke-width="2"/>
      <path id="패스_28747" data-name="패스 28747" d="M87,184.3V156.112L97.268,143.9" transform="translate(12.647 4.426)" fill="none" stroke="#686868" stroke-miterlimit="10" stroke-width="2"/>
      <line id="선_296" data-name="선 296" y2="17.447" transform="translate(92.937 171.275)" fill="none" stroke="#686868" stroke-miterlimit="10" stroke-width="2"/>
      <path id="패스_28748" data-name="패스 28748" d="M83.026,147.718c2.382,0,4.026-2.014,4.026-4.5V141.46c0-2.484-1.644-4.5-4.026-4.5S79,138.976,79,141.46v1.758C79,145.7,80.644,147.718,83.026,147.718Z" transform="translate(9.911 2.052)" fill="none" stroke="#686868" stroke-miterlimit="10" stroke-width="2"/>
    </g>
  </g>
</svg>
