<svg xmlns="http://www.w3.org/2000/svg" width="41" height="40.057" viewBox="0 0 41 40.057">
  <g id="그룹_15158" data-name="그룹 15158" transform="translate(-1535.504 -2702.379)">
    <g id="그룹_15136" data-name="그룹 15136" transform="translate(1323.504 2650.437)">
      <path id="패스_28781" data-name="패스 28781" d="M223,87h1.027c2.25,0,2.833,3,6,3H238" fill="none" stroke="#a5a5a5" stroke-miterlimit="10" stroke-width="2"/>
      <rect id="사각형_1810" data-name="사각형 1810" width="9" height="6" rx="2" transform="translate(243 74)" fill="none" stroke="#a5a5a5" stroke-miterlimit="10" stroke-width="2"/>
      <rect id="사각형_1811" data-name="사각형 1811" width="9" height="6" rx="2" transform="translate(242 68)" fill="none" stroke="#a5a5a5" stroke-miterlimit="10" stroke-width="2"/>
      <rect id="사각형_1812" data-name="사각형 1812" width="9" height="6" rx="2" transform="translate(242 80)" fill="none" stroke="#a5a5a5" stroke-miterlimit="10" stroke-width="2"/>
      <rect id="사각형_1813" data-name="사각형 1813" width="9" height="5" rx="2" transform="translate(240 86)" fill="none" stroke="#a5a5a5" stroke-miterlimit="10" stroke-width="2"/>
      <rect id="사각형_1814" data-name="사각형 1814" width="10" height="22" transform="translate(213 68)" fill="none" stroke="#a5a5a5" stroke-miterlimit="10" stroke-width="2"/>
      <path id="패스_28782" data-name="패스 28782" d="M231.2,82A12.006,12.006,0,0,0,239,71V66c0-.726,1-2.33,1-5.58,0-3.292-.6-4.508-2-6.322-1.417-1.833-4-1.31-4,.46V56c0,3.954-1.451,6.632-4.078,9.588L226,70h-2" fill="none" stroke="#a5a5a5" stroke-miterlimit="10" stroke-width="2"/>
      <line id="선_302" data-name="선 302" y2="4" transform="translate(218 71)" fill="none" stroke="#a5a5a5" stroke-miterlimit="10" stroke-width="2"/>
    </g>
  </g>
</svg>
