<svg xmlns="http://www.w3.org/2000/svg" width="49" height="63.929" viewBox="0 0 49 63.929">
  <g id="그룹_15154" data-name="그룹 15154" transform="translate(-1511.333 -2117.885)">
    <g id="그룹_15126" data-name="그룹 15126" transform="translate(1066.606 1493.885)">
      <path id="패스_28749" data-name="패스 28749" d="M484.788,625A4.988,4.988,0,0,0,480,630.276v1.76a4.811,4.811,0,1,0,9.576,0v-1.76A4.988,4.988,0,0,0,484.788,625" transform="translate(-28.412)" fill="none" stroke="#777" stroke-miterlimit="10" stroke-width="2"/>
      <line id="선_297" data-name="선 297" y1="21.864" transform="translate(465.268 666.065)" fill="none" stroke="#777" stroke-miterlimit="10" stroke-width="2"/>
      <line id="선_298" data-name="선 298" y2="19.152" transform="translate(458.428 668.777)" fill="none" stroke="#777" stroke-miterlimit="10" stroke-width="2"/>
      <line id="선_299" data-name="선 299" y2="29.596" transform="translate(450.22 658.333)" fill="none" stroke="#777" stroke-miterlimit="10" stroke-width="2"/>
      <path id="패스_28750" data-name="패스 28750" d="M514.075,678.669l26.009,8.393,2.708-8.662c.412-1.317-.222-1.977-1.231-1.772a7.259,7.259,0,0,1-3.646.246,5.1,5.1,0,1,1,3.044-9.737,7.268,7.268,0,0,1,2.856,2.281c.712.743,1.609.563,2.02-.755l3.552-11.361-8.128-2.543c-1.32-.413-1.5-1.308-.758-2.019a7.233,7.233,0,0,0,2.28-2.85,5.11,5.11,0,0,0-9.753-3.052,7.241,7.241,0,0,0,.251,3.642c.206,1.008-.453,1.64-1.773,1.227l-8.127-2.543-5.323,16.86" transform="translate(-56.66 -15.138)" fill="none" stroke="#ef8009" stroke-linecap="round" stroke-linejoin="round" stroke-width="2"/>
      <path id="패스_28751" data-name="패스 28751" d="M452.6,728.229l1.237,3.092a3.282,3.282,0,0,0,2.242,2.144s5.5,1.088,7.356,1.487c-1.026,4.047-3.25,4.644-5.788,4.327l-5.478-.706c-1.324-.184-2.221-.474-3.456-2.309l-1.188-2.576c-1.048-2.264-1.793-3.235-1.793-5.078,0-3.857,2.005-7.611,6.428-7.611H459.8" transform="translate(0 -79.584)" fill="none" stroke="#777" stroke-linecap="round" stroke-linejoin="round" stroke-width="2"/>
    </g>
  </g>
</svg>
