<svg xmlns="http://www.w3.org/2000/svg" width="37.667" height="37.667" viewBox="0 0 37.667 37.667">
  <g id="그룹_15162" data-name="그룹 15162" transform="translate(-1532.333 -3215.843)">
    <g id="그룹_15141" data-name="그룹 15141" transform="translate(1352.547 2840.979)">
      <path id="패스_28801" data-name="패스 28801" d="M223.151,390.481a3.684,3.684,0,0,0,1.258-.824l.1-.1a3.738,3.738,0,0,0,0-5.275l-1.887-1.887,1.957-1.957a1.135,1.135,0,0,0,0-1.606l-2.946-2.947a1.136,1.136,0,0,0-1.606,0l-1.956,1.957-1.887-1.888a3.74,3.74,0,0,0-5.274,0l-.105.106a3.69,3.69,0,0,0-.825,1.255l-.527-.526a3.737,3.737,0,0,0-5.276,0l-.1.1a3.738,3.738,0,0,0,0,5.276L218.3,396.389a3.7,3.7,0,0,0,2.637,1.089h0a3.7,3.7,0,0,0,2.637-1.09l.1-.1a3.74,3.74,0,0,0,0-5.276Zm-2.317-12.189,1.34,1.34-1.154,1.155-1.341-1.341Zm-8.422-.629.105-.105a1.469,1.469,0,0,1,2.064,0l8.325,8.327a1.469,1.469,0,0,1,0,2.065l-.1.1a1.5,1.5,0,0,1-2.066,0l-8.325-8.325A1.461,1.461,0,0,1,212.411,377.664Zm9.665,17.019-.1.1a1.468,1.468,0,0,1-2.064,0l-14.228-14.227a1.468,1.468,0,0,1,0-2.063l.1-.1a1.468,1.468,0,0,1,2.064,0l14.227,14.226a1.473,1.473,0,0,1,0,2.066Z" transform="translate(-8.148)" fill="#a5a5a5"/>
      <path id="패스_28802" data-name="패스 28802" d="M202.348,398.617l-7.48,7.48-1.34-1.34,7.481-7.48-1.606-1.606-7.48,7.48-4.837-4.837a3.738,3.738,0,0,0-5.276,0l-.1.1a3.739,3.739,0,0,0,0,5.276l.53.529a3.693,3.693,0,0,0-1.259.825l-.1.1a3.74,3.74,0,0,0,0,5.277l1.887,1.886-1.957,1.957a1.135,1.135,0,0,0,0,1.605l2.946,2.945a1.135,1.135,0,0,0,1.606,0l1.956-1.955,1.887,1.887a3.74,3.74,0,0,0,5.277,0l.1-.1a3.718,3.718,0,0,0,.824-1.257l.529.529a3.736,3.736,0,0,0,5.275,0l.1-.1a3.734,3.734,0,0,0,0-5.276l-4.837-4.838,7.48-7.479Zm-17.793,17.792-1.34-1.34,1.154-1.154,1.339,1.341Zm8.417.633-.1.1a1.5,1.5,0,0,1-2.064,0l-8.325-8.325a1.469,1.469,0,0,1,0-2.066l.1-.1a1.467,1.467,0,0,1,2.064,0l8.325,8.326a1.467,1.467,0,0,1,0,2.066Zm6.733-.831-.1.1a1.5,1.5,0,0,1-2.064,0l-14.227-14.228a1.467,1.467,0,0,1,0-2.064l.1-.1a1.469,1.469,0,0,1,2.065,0l14.225,14.227A1.463,1.463,0,0,1,199.705,416.211Z" transform="translate(0 -7.308)" fill="#a5a5a5"/>
    </g>
  </g>
</svg>
