<svg xmlns="http://www.w3.org/2000/svg" width="47.464" height="48.817" viewBox="0 0 47.464 48.817">
  <g id="그룹_15118" data-name="그룹 15118" transform="translate(-392.188 -1258.538)">
    <path id="패스_28727" data-name="패스 28727" d="M572,1482.715l2.526-10.56c.393-1.832,1.688-2.76,3.718-3.141l8.119-1.522,6.036-5.449s1.962,4.441-.254,6.534l-4.314,4.809-6.656,2.035" transform="translate(-155.949 -176.575)" fill="none" stroke="#a5a5a5" stroke-linecap="round" stroke-linejoin="round" stroke-width="2"/>
    <line id="선_292" data-name="선 292" y1="8.566" x2="2.172" transform="translate(427.214 1297.573)" fill="none" stroke="#a5a5a5" stroke-linecap="round" stroke-linejoin="round" stroke-width="2"/>
    <line id="선_293" data-name="선 293" x1="9.322" y1="26.618" transform="translate(426.063 1259.813)" fill="none" stroke="#a5a5a5" stroke-linecap="round" stroke-miterlimit="10" stroke-width="2"/>
    <line id="선_294" data-name="선 294" x1="1.434" y1="4.094" transform="translate(436.944 1290.882)" fill="none" stroke="#a5a5a5" stroke-linecap="round" stroke-miterlimit="10" stroke-width="2"/>
    <path id="패스_28728" data-name="패스 28728" d="M509.147,1297h-6.8l3.552,4.059-.709,4.06h10.149l-.714-2.03" transform="translate(-95.134 -32.47)" fill="none" stroke="#a5a5a5" stroke-linecap="round" stroke-linejoin="round" stroke-width="2"/>
    <path id="패스_28729" data-name="패스 28729" d="M587.1,1281H576.745l2.841,8.119H589.94" transform="translate(-160.092 -18.5)" fill="none" stroke="#a5a5a5" stroke-linecap="round" stroke-linejoin="round" stroke-width="2"/>
    <path id="패스_28730" data-name="패스 28730" d="M608.059,1411.149A4.159,4.159,0,0,1,604,1406.8v-1.451a4.069,4.069,0,1,1,8.119,0v1.451A4.159,4.159,0,0,1,608.059,1411.149Z" transform="translate(-183.89 -123.277)" fill="none" stroke="#a5a5a5" stroke-linecap="round" stroke-miterlimit="10" stroke-width="2"/>
    <path id="패스_28731" data-name="패스 28731" d="M483.653,1552.289l1.555-6.5c.393-1.832,1.688-2.76,3.718-3.141l4.921-.923" transform="translate(-78.81 -246.149)" fill="none" stroke="#a5a5a5" stroke-linecap="round" stroke-linejoin="round" stroke-width="2"/>
    <path id="패스_28732" data-name="패스 28732" d="M512.06,1443.149A4.16,4.16,0,0,1,508,1438.8v-1.45a4.069,4.069,0,1,1,8.119,0v1.45A4.159,4.159,0,0,1,512.06,1443.149Z" transform="translate(-100.068 -151.217)" fill="none" stroke="#a5a5a5" stroke-linecap="round" stroke-miterlimit="10" stroke-width="2"/>
    <path id="패스_28733" data-name="패스 28733" d="M393.393,1573.253l.827-3.456c.393-1.832,1.688-2.76,3.718-3.141l4.914-.921" transform="translate(0 -267.114)" fill="none" stroke="#a5a5a5" stroke-linecap="round" stroke-linejoin="round" stroke-width="2"/>
    <path id="패스_28734" data-name="패스 28734" d="M416.06,1467.149A4.159,4.159,0,0,1,412,1462.8v-1.451a4.069,4.069,0,1,1,8.119,0v1.451A4.159,4.159,0,0,1,416.06,1467.149Z" transform="translate(-16.247 -172.173)" fill="none" stroke="#a5a5a5" stroke-linecap="round" stroke-miterlimit="10" stroke-width="2"/>
  </g>
</svg>
