<svg xmlns="http://www.w3.org/2000/svg" width="41.495" height="41.396" viewBox="0 0 41.495 41.396">
  <g id="그룹_15157" data-name="그룹 15157" transform="translate(-1138.156 -2702.389)">
    <g id="health-insurance-donation" transform="translate(732.497 2287.389)">
      <g id="그룹_15135" data-name="그룹 15135" transform="translate(407 439.288)">
        <path id="패스_28776" data-name="패스 28776" d="M407,460.891l3.774-1.884,6.294,10.071-3.144,1.884" transform="translate(-407 -455.226)" fill="none" stroke="#a5a5a5" stroke-linecap="round" stroke-linejoin="round" stroke-width="2"/>
        <path id="패스_28777" data-name="패스 28777" d="M426.333,458.035l7.546,0a2.515,2.515,0,0,0,2.515-2.516h0A2.515,2.515,0,0,0,433.879,453l-9.623,0a6.29,6.29,0,0,0-3.168.857l-6.078,3.546" transform="translate(-409.968 -453)" fill="none" stroke="#a5a5a5" stroke-linecap="round" stroke-linejoin="round" stroke-width="2"/>
        <path id="패스_28778" data-name="패스 28778" d="M437.327,458.045l11-4.828a2.525,2.525,0,0,1,3.289,1.362h0a2.526,2.526,0,0,1-1.362,3.29l-11.122,5.342a6.307,6.307,0,0,1-2.456.5h-9.885a3.768,3.768,0,0,0-1.941.538L422.6,465.6" transform="translate(-412.782 -453.01)" fill="none" stroke="#a5a5a5" stroke-linecap="round" stroke-linejoin="round" stroke-width="2"/>
      </g>
      <path id="패스_28779" data-name="패스 28779" d="M436.524,443.065c4.105-3.2,11.723-11.771,11.723-17.624a9.436,9.436,0,0,0-17.624-4.7,9.436,9.436,0,0,0-17.624,4.7c0,4.213,3.948,9.836,7.691,13.848" transform="translate(-2.223)" fill="none" stroke="#a5a5a5" stroke-linecap="round" stroke-linejoin="round" stroke-width="2"/>
      <path id="패스_28780" data-name="패스 28780" d="M425,437.553h4.406l1.888-3.147,3.147,6.294,3.777-10.7,3.147,7.553h3.777" transform="translate(-6.67 -5.188)" fill="none" stroke="#a5a5a5" stroke-linecap="square" stroke-linejoin="round" stroke-width="2"/>
    </g>
  </g>
</svg>
