<svg xmlns="http://www.w3.org/2000/svg" width="48.481" height="47.202" viewBox="0 0 48.481 47.202">
  <g id="그룹_15161" data-name="그룹 15161" transform="translate(-1134.763 -3218.73)">
    <g id="그룹_15139" data-name="그룹 15139" transform="translate(-535.823 2594.73)">
      <path id="패스_28793" data-name="패스 28793" d="M1806.063,746.076a4.236,4.236,0,0,0,4.018-4.018v-8.036c0-3.318-5.551-5.022-9.04-5.022s-9.041,1.7-9.041,5.022v12.054" transform="translate(-104.933 -90.942)" fill="none" stroke="#a5a5a5" stroke-linecap="round" stroke-linejoin="round" stroke-width="2"/>
      <line id="선_314" data-name="선 314" y1="25.008" transform="translate(1701.357 644.571)" fill="none" stroke="#a5a5a5" stroke-linecap="round" stroke-linejoin="round" stroke-width="2"/>
      <line id="선_315" data-name="선 315" y2="10.873" transform="translate(1691.571 644.571)" fill="none" stroke="#a5a5a5" stroke-linecap="round" stroke-linejoin="round" stroke-width="2"/>
      <line id="선_316" data-name="선 316" y2="14.135" transform="translate(1695.921 655.444)" fill="none" stroke="#a5a5a5" stroke-linecap="round" stroke-linejoin="round" stroke-width="2"/>
      <line id="선_317" data-name="선 317" y2="6.524" transform="translate(1691.571 663.055)" fill="none" stroke="#a5a5a5" stroke-linecap="round" stroke-linejoin="round" stroke-width="2"/>
      <rect id="사각형_1815" data-name="사각형 1815" width="8.698" height="7.611" transform="translate(1682.873 655.444)" fill="none" stroke="#a5a5a5" stroke-linejoin="round" stroke-width="2"/>
      <path id="패스_28794" data-name="패스 28794" d="M1836.018,635.045a3.851,3.851,0,0,0,4.018-4.018v-2.009a4.018,4.018,0,1,0-8.036,0v2.009A3.851,3.851,0,0,0,1836.018,635.045Z" transform="translate(-139.91 0)" fill="none" stroke="#a5a5a5" stroke-linejoin="round" stroke-width="2"/>
      <path id="패스_28795" data-name="패스 28795" d="M1952.036,704.139V680.868A7.954,7.954,0,0,0,1944,673" transform="translate(-237.847 -41.973)" fill="none" stroke="#a5a5a5" stroke-linecap="round" stroke-linejoin="round" stroke-width="2"/>
      <path id="패스_28796" data-name="패스 28796" d="M1704,737v23.271a7.954,7.954,0,0,0,8.036,7.868" transform="translate(-27.982 -97.937)" fill="none" stroke="#a5a5a5" stroke-linecap="round" stroke-linejoin="round" stroke-width="2"/>
      <line id="선_318" data-name="선 318" x1="3.262" y1="4.349" transform="translate(1676.349 639.135)" fill="none" stroke="#a5a5a5" stroke-linecap="round" stroke-linejoin="round" stroke-width="2"/>
      <line id="선_319" data-name="선 319" y1="4.349" x2="4.349" transform="translate(1672 639.135)" fill="none" stroke="#a5a5a5" stroke-linecap="round" stroke-linejoin="round" stroke-width="2"/>
      <line id="선_320" data-name="선 320" x2="4.349" y2="4.349" transform="translate(1710.055 657.619)" fill="none" stroke="#a5a5a5" stroke-linecap="round" stroke-linejoin="round" stroke-width="2"/>
      <line id="선_321" data-name="선 321" x1="3.262" y2="4.349" transform="translate(1714.405 657.619)" fill="none" stroke="#a5a5a5" stroke-linecap="round" stroke-linejoin="round" stroke-width="2"/>
    </g>
  </g>
</svg>
