<svg xmlns="http://www.w3.org/2000/svg" width="56.75" height="53.179" viewBox="0 0 56.75 53.179">
  <g id="그룹_15155" data-name="그룹 15155" transform="translate(-1503.583 -2270.335)">
    <g id="그룹_15127" data-name="그룹 15127" transform="translate(-1447.417 1638.335)">
      <path id="패스_28752" data-name="패스 28752" d="M2987.752,655.488l2.335-.542v-5.8l-4.117-.956a15.327,15.327,0,0,0-1.643-3.969l2.235-3.587-4.1-4.1-3.587,2.235a15.317,15.317,0,0,0-3.969-1.643l-.956-4.118h-5.8l-.956,4.118a15.322,15.322,0,0,0-3.969,1.643l-3.587-2.235-4.1,4.1,2.235,3.587a15.327,15.327,0,0,0-1.643,3.969l-4.118.956v5.8l4.118.956a15.327,15.327,0,0,0,1.643,3.969l-2.235,3.587,4.1,4.1,3.587-2.235" fill="none" stroke="#ef8009" stroke-linecap="round" stroke-linejoin="round" stroke-width="2"/>
      <circle id="타원_5337" data-name="타원 5337" cx="4.818" cy="4.818" r="4.818" transform="translate(2966.016 647.016)" fill="none" stroke="#ef8009" stroke-linecap="round" stroke-linejoin="round" stroke-width="2"/>
      <path id="패스_28753" data-name="패스 28753" d="M3236.761,788.9a4.878,4.878,0,0,1-4.761-5.1v-1.7a4.772,4.772,0,1,1,9.522,0v1.7A4.878,4.878,0,0,1,3236.761,788.9Z" transform="translate(-238.342 -122.576)" fill="none" stroke="#686868" stroke-linecap="round" stroke-miterlimit="10" stroke-width="2"/>
      <path id="패스_28754" data-name="패스 28754" d="M3224,858.5a13.322,13.322,0,0,1,5.952-1.5c2.964,0,8.331,1.471,8.331,4.733v1.218" transform="translate(-231.528 -190.674)" fill="none" stroke="#686868" stroke-linecap="round" stroke-miterlimit="10" stroke-width="2"/>
      <path id="패스_28755" data-name="패스 28755" d="M3140.761,828.9a4.878,4.878,0,0,1-4.761-5.1v-1.7a4.772,4.772,0,1,1,9.522,0v1.7A4.878,4.878,0,0,1,3140.761,828.9Z" transform="translate(-156.625 -156.625)" fill="none" stroke="#686868" stroke-linecap="round" stroke-miterlimit="10" stroke-width="2"/>
      <path id="패스_28756" data-name="패스 28756" d="M3128,898.5a13.323,13.323,0,0,1,5.95-1.5c2.965,0,8.332,1.471,8.332,4.733v1.218" transform="translate(-149.818 -224.723)" fill="none" stroke="#686868" stroke-linecap="round" stroke-miterlimit="10" stroke-width="2"/>
      <path id="패스_28757" data-name="패스 28757" d="M3044.76,868.9a4.878,4.878,0,0,1-4.76-5.1v-1.7a4.772,4.772,0,1,1,9.521,0v1.7A4.878,4.878,0,0,1,3044.76,868.9Z" transform="translate(-74.908 -190.674)" fill="none" stroke="#686868" stroke-linecap="round" stroke-miterlimit="10" stroke-width="2"/>
      <path id="패스_28758" data-name="패스 28758" d="M3016,942.951v-1.19c0-3.262,5.367-4.761,8.332-4.761s8.332,1.471,8.332,4.733v1.218" transform="translate(-54.478 -258.772)" fill="none" stroke="#686868" stroke-linecap="round" stroke-miterlimit="10" stroke-width="2"/>
    </g>
  </g>
</svg>
